<mxfile host="drawio-plugin" modified="2023-11-02T16:44:53.530Z" agent="5.0 (X11; Linux x86_64) AppleWebKit/537.36 (KHTML, like Gecko) Chrome/111.0.0.0 Safari/537.36" etag="bZBQbhW7XzAQJhaG4I8_" version="20.5.3" type="embed"><diagram id="23iRSUPoRavnBvh4doch" name="Page-1"><mxGraphModel dx="811" dy="438" grid="0" gridSize="10" guides="1" tooltips="1" connect="1" arrows="1" fold="1" page="0" pageScale="1" pageWidth="827" pageHeight="1169" math="0" shadow="0"><root><mxCell id="0"/><mxCell id="1" parent="0"/><mxCell id="17" value="Server" style="swimlane;fontStyle=1;align=center;verticalAlign=top;childLayout=stackLayout;horizontal=1;startSize=26;horizontalStack=0;resizeParent=1;resizeParentMax=0;resizeLast=0;collapsible=1;marginBottom=0;" parent="1" vertex="1"><mxGeometry x="464" y="258" width="160" height="34" as="geometry"/></mxCell><mxCell id="28" value="" style="line;strokeWidth=1;fillColor=none;align=left;verticalAlign=middle;spacingTop=-1;spacingLeft=3;spacingRight=3;rotatable=0;labelPosition=right;points=[];portConstraint=eastwest;strokeColor=inherit;" vertex="1" parent="17"><mxGeometry y="26" width="160" height="8" as="geometry"/></mxCell><mxCell id="25" value="Client" style="swimlane;fontStyle=1;align=center;verticalAlign=top;childLayout=stackLayout;horizontal=1;startSize=26;horizontalStack=0;resizeParent=1;resizeParentMax=0;resizeLast=0;collapsible=1;marginBottom=0;" parent="1" vertex="1"><mxGeometry x="72" y="266" width="160" height="34" as="geometry"/></mxCell><mxCell id="26" value="" style="line;strokeWidth=1;fillColor=none;align=left;verticalAlign=middle;spacingTop=-1;spacingLeft=3;spacingRight=3;rotatable=0;labelPosition=right;points=[];portConstraint=eastwest;strokeColor=inherit;" parent="25" vertex="1"><mxGeometry y="26" width="160" height="8" as="geometry"/></mxCell><mxCell id="29" value="" style="endArrow=block;html=1;rounded=0;startArrow=none;startFill=0;endFill=0;" edge="1" parent="1" source="25" target="17"><mxGeometry width="50" height="50" relative="1" as="geometry"><mxPoint x="328" y="465" as="sourcePoint"/><mxPoint x="378" y="415" as="targetPoint"/></mxGeometry></mxCell><mxCell id="30" value="TCP, UDP" style="text;strokeColor=none;fillColor=none;spacingLeft=4;spacingRight=4;overflow=hidden;rotatable=0;points=[[0,0.5],[1,0.5]];portConstraint=eastwest;fontSize=12;" vertex="1" parent="1"><mxGeometry x="283" y="253" width="63" height="30" as="geometry"/></mxCell><mxCell id="35" value="Hitboxer" style="swimlane;fontStyle=1;align=center;verticalAlign=top;childLayout=stackLayout;horizontal=1;startSize=26;horizontalStack=0;resizeParent=1;resizeParentMax=0;resizeLast=0;collapsible=1;marginBottom=0;" vertex="1" parent="1"><mxGeometry x="610" y="317" width="160" height="34" as="geometry"/></mxCell><mxCell id="36" value="" style="line;strokeWidth=1;fillColor=none;align=left;verticalAlign=middle;spacingTop=-1;spacingLeft=3;spacingRight=3;rotatable=0;labelPosition=right;points=[];portConstraint=eastwest;strokeColor=inherit;" vertex="1" parent="35"><mxGeometry y="26" width="160" height="8" as="geometry"/></mxCell><mxCell id="38" value="Maper" style="swimlane;fontStyle=1;align=center;verticalAlign=top;childLayout=stackLayout;horizontal=1;startSize=26;horizontalStack=0;resizeParent=1;resizeParentMax=0;resizeLast=0;collapsible=1;marginBottom=0;" vertex="1" parent="1"><mxGeometry x="577" y="400" width="160" height="34" as="geometry"/></mxCell><mxCell id="39" value="" style="line;strokeWidth=1;fillColor=none;align=left;verticalAlign=middle;spacingTop=-1;spacingLeft=3;spacingRight=3;rotatable=0;labelPosition=right;points=[];portConstraint=eastwest;strokeColor=inherit;" vertex="1" parent="38"><mxGeometry y="26" width="160" height="8" as="geometry"/></mxCell><mxCell id="40" value="List&lt;Player&gt;&#10;" style="swimlane;fontStyle=1;align=center;verticalAlign=top;childLayout=stackLayout;horizontal=1;startSize=26;horizontalStack=0;resizeParent=1;resizeParentMax=0;resizeLast=0;collapsible=1;marginBottom=0;" vertex="1" parent="1"><mxGeometry x="471" y="522" width="160" height="34" as="geometry"/></mxCell><mxCell id="41" value="" style="line;strokeWidth=1;fillColor=none;align=left;verticalAlign=middle;spacingTop=-1;spacingLeft=3;spacingRight=3;rotatable=0;labelPosition=right;points=[];portConstraint=eastwest;strokeColor=inherit;" vertex="1" parent="40"><mxGeometry y="26" width="160" height="8" as="geometry"/></mxCell><mxCell id="42" value="" style="endArrow=block;html=1;rounded=0;startArrow=classic;startFill=0;endFill=0;" edge="1" parent="1" source="25" target="40"><mxGeometry width="50" height="50" relative="1" as="geometry"><mxPoint x="262" y="439.0037704918032" as="sourcePoint"/><mxPoint x="407" y="441.8562295081968" as="targetPoint"/></mxGeometry></mxCell><mxCell id="43" value="TCP, UDP" style="text;strokeColor=none;fillColor=none;spacingLeft=4;spacingRight=4;overflow=hidden;rotatable=0;points=[[0,0.5],[1,0.5]];portConstraint=eastwest;fontSize=12;" vertex="1" parent="1"><mxGeometry x="283" y="408" width="70" height="24" as="geometry"/></mxCell><mxCell id="44" value="" style="endArrow=block;html=1;rounded=0;startArrow=none;startFill=0;endFill=0;" edge="1" parent="1" target="40"><mxGeometry width="50" height="50" relative="1" as="geometry"><mxPoint x="520" y="292" as="sourcePoint"/><mxPoint x="673" y="417.63265306122446" as="targetPoint"/></mxGeometry></mxCell><mxCell id="45" value="UDP" style="text;strokeColor=none;fillColor=none;spacingLeft=4;spacingRight=4;overflow=hidden;rotatable=0;points=[[0,0.5],[1,0.5]];portConstraint=eastwest;fontSize=12;" vertex="1" parent="1"><mxGeometry x="464" y="355" width="37" height="24" as="geometry"/></mxCell><mxCell id="46" value="" style="endArrow=block;html=1;rounded=0;startArrow=classic;startFill=1;endFill=0;" edge="1" parent="1" source="35" target="38"><mxGeometry width="50" height="50" relative="1" as="geometry"><mxPoint x="733" y="485" as="sourcePoint"/><mxPoint x="744.0599078341015" y="685" as="targetPoint"/></mxGeometry></mxCell><mxCell id="47" value="update" style="text;strokeColor=none;fillColor=none;spacingLeft=4;spacingRight=4;overflow=hidden;rotatable=0;points=[[0,0.5],[1,0.5]];portConstraint=eastwest;fontSize=12;" vertex="1" parent="1"><mxGeometry x="678" y="361" width="59" height="24" as="geometry"/></mxCell><mxCell id="48" value="" style="endArrow=classic;html=1;rounded=0;startArrow=none;startFill=0;endFill=1;" edge="1" parent="1" source="38" target="40"><mxGeometry width="50" height="50" relative="1" as="geometry"><mxPoint x="639.9976859504131" y="393" as="sourcePoint"/><mxPoint x="694.6423140495867" y="480" as="targetPoint"/></mxGeometry></mxCell><mxCell id="49" value="update" style="text;strokeColor=none;fillColor=none;spacingLeft=4;spacingRight=4;overflow=hidden;rotatable=0;points=[[0,0.5],[1,0.5]];portConstraint=eastwest;fontSize=12;" vertex="1" parent="1"><mxGeometry x="631" y="463" width="59" height="33" as="geometry"/></mxCell></root></mxGraphModel></diagram></mxfile>